<svg xmlns="http://www.w3.org/2000/svg" viewBox="0 0 512 512" role="img" aria-labelledby="title desc">
  <title id="title">ChessQuest</title>
  <desc id="desc">Logo ChessQuest avec couronne, cavalier et sentier d'apprentissage.</desc>
  <defs>
    <linearGradient id="sky" x1="74" y1="36" x2="440" y2="470" gradientUnits="userSpaceOnUse">
      <stop offset="0" stop-color="#8FDDD1"/>
      <stop offset=".52" stop-color="#7C6EF0"/>
      <stop offset="1" stop-color="#FFA53D"/>
    </linearGradient>
    <linearGradient id="gold" x1="162" y1="122" x2="360" y2="396" gradientUnits="userSpaceOnUse">
      <stop offset="0" stop-color="#FFE68A"/>
      <stop offset=".48" stop-color="#FFB84D"/>
      <stop offset="1" stop-color="#D77B21"/>
    </linearGradient>
    <filter id="softShadow" x="-20%" y="-20%" width="140%" height="150%">
      <feDropShadow dx="0" dy="18" stdDeviation="18" flood-color="#241F3D" flood-opacity=".24"/>
    </filter>
  </defs>
  <rect width="512" height="512" rx="116" fill="#F8F7FB"/>
  <rect x="32" y="32" width="448" height="448" rx="96" fill="url(#sky)"/>
  <path d="M92 374c77-48 98-112 163-118 57-6 93 39 164 9" fill="none" stroke="#F8F7FB" stroke-width="32" stroke-linecap="round" opacity=".72"/>
  <path d="M94 374c78-48 98-112 164-118 56-5 91 38 162 9" fill="none" stroke="#D8C29A" stroke-width="18" stroke-linecap="round"/>
  <g filter="url(#softShadow)">
    <path d="M173 370h167l-19 44H192l-19-44Z" fill="#241F3D"/>
    <path d="M200 347h112l24 31H176l24-31Z" fill="#3D3763"/>
    <path d="M227 326h58l18 28h-94l18-28Z" fill="#F8F7FB"/>
    <path d="M213 315c-8-35 8-66 38-84 22-13 20-38 2-51 41 2 79 31 79 75 0 33-16 53-47 70h-72Z" fill="#F8F7FB"/>
    <path d="M256 176c-7 32-30 45-49 58 3-36 23-61 49-58Z" fill="#241F3D"/>
    <path d="M287 226c20 2 36 11 45 28-24 2-41-4-55-18l10-10Z" fill="#241F3D"/>
    <circle cx="275" cy="244" r="7" fill="#241F3D"/>
    <path d="M180 176l24 21 35-54 35 54 35-54 35 54 24-21-15 90H195l-15-90Z" fill="url(#gold)" stroke="#F8F7FB" stroke-width="8" stroke-linejoin="round"/>
    <circle cx="239" cy="143" r="14" fill="#FFE68A"/>
    <circle cx="309" cy="143" r="14" fill="#FFE68A"/>
    <circle cx="180" cy="176" r="12" fill="#FFE68A"/>
    <circle cx="368" cy="176" r="12" fill="#FFE68A"/>
  </g>
  <path d="M97 126c18-18 45-18 63 0M361 382c19-18 47-18 66 0" fill="none" stroke="#F8F7FB" stroke-width="14" stroke-linecap="round" opacity=".78"/>
</svg>
